<svg width="204" height="204" viewBox="0 0 204 204" fill="none" xmlns="http://www.w3.org/2000/svg">
<g filter="url(#filter0_d_64_2)">
<rect x="17" y="17" width="170" height="170" fill="white"/>
</g>
<path d="M84.741 120.103C102.627 115.311 113.241 96.9261 108.449 79.04C103.656 61.1539 85.2717 50.5395 67.3856 55.3321C49.4995 60.1247 38.8851 78.5093 43.6777 96.3954C48.4703 114.281 66.8549 124.896 84.741 120.103Z" fill="white" stroke="#181BA8" stroke-opacity="0.43" stroke-width="5"/>
<path d="M74.7677 67.6443L73.3914 85.3684C73.4591 85.6211 73.4237 85.8902 73.2929 86.1167C73.1621 86.3432 72.9468 86.5085 72.6941 86.5762L60.3114 89.8941" fill="white"/>
<path d="M74.7677 67.6443L73.3914 85.3684C73.4591 85.6211 73.4237 85.8902 73.2929 86.1167C73.1621 86.3432 72.9468 86.5085 72.6941 86.5762L60.3114 89.8941" stroke="#181BA8" stroke-opacity="0.43" stroke-width="5" stroke-linecap="round"/>
<rect x="57.2525" y="118.028" width="84.7087" height="43.3892" rx="12" transform="rotate(-44.7175 57.2525 118.028)" fill="white"/>
<path d="M94.2549 151.499C86.7075 151.499 80.292 148.857 75.0084 143.574C69.7248 138.29 67.083 131.875 67.083 124.327C67.083 120.673 67.7841 117.179 69.1863 113.846C70.5884 110.509 72.5546 107.574 75.0848 105.04L114.624 65.5009C117.154 62.9668 120.087 61.0007 123.424 59.6024C126.765 58.2003 130.263 57.4992 133.917 57.4992C141.464 57.4992 147.88 60.141 153.164 65.4245C158.447 70.7081 161.087 77.1236 161.083 84.671C161.083 88.3253 160.382 91.8209 158.98 95.1579C157.582 98.491 155.617 101.425 153.087 103.959L113.543 143.497C111.012 146.028 108.079 147.994 104.742 149.396C101.405 150.798 97.9091 151.499 94.2549 151.499ZM131.291 117.401L149.039 99.7992C150.998 97.8408 152.515 95.5398 153.592 92.896C154.669 90.2523 155.208 87.5106 155.208 84.671C155.208 78.796 153.126 73.7788 148.963 69.6193C144.799 65.4598 139.782 63.3781 133.911 63.3742C131.072 63.3742 128.33 63.9127 125.686 64.9898C123.042 66.0669 120.741 67.5846 118.783 69.5429L101.182 87.2913L131.291 117.401ZM94.2549 145.624C97.0945 145.624 99.8361 145.086 102.48 144.009C105.124 142.931 107.425 141.414 109.383 139.455L126.985 121.707L96.8751 91.5977L79.1268 109.199C77.1684 111.157 75.6507 113.459 74.5736 116.102C73.4965 118.746 72.958 121.488 72.958 124.327C72.958 130.202 75.0397 135.221 79.2031 139.385C83.3665 143.548 88.3838 145.628 94.2549 145.624Z" fill="url(#paint0_linear_64_2)"/>
<defs>
<filter id="filter0_d_64_2" x="0.7" y="0.7" width="202.6" height="202.6" filterUnits="userSpaceOnUse" color-interpolation-filters="sRGB">
<feFlood flood-opacity="0" result="BackgroundImageFix"/>
<feColorMatrix in="SourceAlpha" type="matrix" values="0 0 0 0 0 0 0 0 0 0 0 0 0 0 0 0 0 0 127 0" result="hardAlpha"/>
<feMorphology radius="4" operator="dilate" in="SourceAlpha" result="effect1_dropShadow_64_2"/>
<feOffset/>
<feGaussianBlur stdDeviation="6.15"/>
<feComposite in2="hardAlpha" operator="out"/>
<feColorMatrix type="matrix" values="0 0 0 0 0 0 0 0 0 0 0 0 0 0 0 0 0 0 0.12 0"/>
<feBlend mode="normal" in2="BackgroundImageFix" result="effect1_dropShadow_64_2"/>
<feBlend mode="normal" in="SourceGraphic" in2="effect1_dropShadow_64_2" result="shape"/>
</filter>
<linearGradient id="paint0_linear_64_2" x1="71" y1="111.5" x2="164" y2="111.5" gradientUnits="userSpaceOnUse">
<stop stop-color="#9C9DDA"/>
<stop offset="1" stop-color="#000398"/>
</linearGradient>
</defs>
</svg>
